<?xml version="1.0" encoding="UTF-8" standalone="no"?>
<!-- Created with Inkscape (http://www.inkscape.org/) -->

<svg
   xmlns:dc="http://purl.org/dc/elements/1.1/"
   xmlns:cc="http://creativecommons.org/ns#"
   xmlns:rdf="http://www.w3.org/1999/02/22-rdf-syntax-ns#"
   xmlns:svg="http://www.w3.org/2000/svg"
   xmlns="http://www.w3.org/2000/svg"
   xmlns:sodipodi="http://sodipodi.sourceforge.net/DTD/sodipodi-0.dtd"
   xmlns:inkscape="http://www.inkscape.org/namespaces/inkscape"
   width="765"
   height="990"
   id="svg2"
   version="1.1"
   inkscape:version="0.48.3.1 r9886"
   sodipodi:docname="procedurebook_cover.svg">
  <defs
     id="defs4">
    <inkscape:perspective
       sodipodi:type="inkscape:persp3d"
       inkscape:vp_x="0 : 0.5 : 1"
       inkscape:vp_y="0 : 1000 : 0"
       inkscape:vp_z="1 : 0.5 : 1"
       inkscape:persp3d-origin="0.5 : 0.33333333 : 1"
       id="perspective3756" />
    <inkscape:perspective
       sodipodi:type="inkscape:persp3d"
       inkscape:vp_x="0 : 0.5 : 1"
       inkscape:vp_y="0 : 1000 : 0"
       inkscape:vp_z="1 : 0.5 : 1"
       inkscape:persp3d-origin="0.5 : 0.33333333 : 1"
       id="perspective3731" />
    <inkscape:perspective
       sodipodi:type="inkscape:persp3d"
       inkscape:vp_x="0 : 0.5 : 1"
       inkscape:vp_y="0 : 1000 : 0"
       inkscape:vp_z="1 : 0.5 : 1"
       inkscape:persp3d-origin="0.5 : 0.33333333 : 1"
       id="perspective3707" />
    <inkscape:perspective
       sodipodi:type="inkscape:persp3d"
       inkscape:vp_x="0 : 0.5 : 1"
       inkscape:vp_y="0 : 1000 : 0"
       inkscape:vp_z="1 : 0.5 : 1"
       inkscape:persp3d-origin="0.5 : 0.33333333 : 1"
       id="perspective3682" />
    <inkscape:perspective
       sodipodi:type="inkscape:persp3d"
       inkscape:vp_x="0 : 0.5 : 1"
       inkscape:vp_y="0 : 1000 : 0"
       inkscape:vp_z="1 : 0.5 : 1"
       inkscape:persp3d-origin="0.5 : 0.33333333 : 1"
       id="perspective2884" />
    <inkscape:perspective
       id="perspective10"
       inkscape:persp3d-origin="372.04724 : 350.78739 : 1"
       inkscape:vp_z="744.09448 : 526.18109 : 1"
       inkscape:vp_y="0 : 1000 : 0"
       inkscape:vp_x="0 : 526.18109 : 1"
       sodipodi:type="inkscape:persp3d" />
  </defs>
  <sodipodi:namedview
     id="base"
     pagecolor="#ffffff"
     bordercolor="#666666"
     borderopacity="1.0"
     inkscape:pageopacity="0.0"
     inkscape:pageshadow="2"
     inkscape:zoom="0.53636364"
     inkscape:cx="382.5"
     inkscape:cy="495"
     inkscape:document-units="in"
     inkscape:current-layer="layer1"
     showgrid="true"
     borderlayer="true"
     inkscape:showpageshadow="false"
     units="in"
     inkscape:window-width="1280"
     inkscape:window-height="749"
     inkscape:window-x="0"
     inkscape:window-y="27"
     inkscape:window-maximized="1"
     showguides="true"
     inkscape:guide-bbox="true"
     guidecolor="#ff00db"
     guideopacity="0.49803922">
    <inkscape:grid
       type="xygrid"
       id="grid2985"
       empspacing="4"
       visible="true"
       enabled="true"
       snapvisiblegridlinesonly="true"
       units="in"
       spacingx="0.25in"
       spacingy="0.25in"
       color="#ff00ff"
       opacity="0.0627451"
       empcolor="#ff00ff"
       empopacity="0.15686275" />
    <sodipodi:guide
       orientation="1,0"
       position="382.5,540"
       id="guide3014" />
  </sodipodi:namedview>
  <metadata
     id="metadata7">
    <rdf:RDF>
      <cc:Work
         rdf:about="">
        <dc:format>image/svg+xml</dc:format>
        <dc:type
           rdf:resource="http://purl.org/dc/dcmitype/StillImage" />
        <dc:title />
      </cc:Work>
    </rdf:RDF>
  </metadata>
  <g
     inkscape:label="Layer 1"
     inkscape:groupmode="layer"
     id="layer1"
     transform="translate(0,-62.3623)">
    <flowRoot
       xml:space="preserve"
       id="flowRoot3006"
       style="font-size:50px;font-style:normal;font-variant:normal;font-weight:bold;font-stretch:normal;text-align:center;line-height:125%;letter-spacing:0px;word-spacing:0px;writing-mode:lr-tb;text-anchor:middle;fill:#000000;fill-opacity:1;stroke:none;font-family:Helvetica LT Narrow;-inkscape-font-specification:Helvetica LT Narrow Bold"
       transform="matrix(1.2,0,0,1.2,-100.95,295.24455)"><flowRegion
         id="flowRegion3008"><rect
           id="rect3010"
           width="647.27832"
           height="169.14761"
           x="79.237289"
           y="149.15254"
           style="font-size:50px;font-style:normal;font-variant:normal;font-weight:bold;font-stretch:normal;text-align:center;line-height:125%;writing-mode:lr-tb;text-anchor:middle;font-family:Helvetica LT Narrow;-inkscape-font-specification:Helvetica LT Narrow Bold" /></flowRegion><flowPara
         id="flowPara3012">LAUNCH OPERATIONS HANDBOOK</flowPara></flowRoot>    <text
       xml:space="preserve"
       style="font-size:75px;font-style:normal;font-variant:normal;font-weight:bold;font-stretch:normal;text-align:start;line-height:125%;letter-spacing:0px;word-spacing:0px;writing-mode:lr-tb;text-anchor:start;fill:none;stroke:#000000;stroke-width:1.20000005;stroke-opacity:1;font-family:Futura LT Book;-inkscape-font-specification:'Futura LT Book, Bold'"
       x="112.5"
       y="309.8623"
       id="text3016"
       sodipodi:linespacing="125%"><tspan
         sodipodi:role="line"
         id="tspan3137"
         x="112.5"
         y="309.8623">L-11</tspan></text>
    <text
       xml:space="preserve"
       style="font-size:14px;font-style:normal;font-variant:normal;font-weight:normal;font-stretch:normal;text-align:center;line-height:125%;letter-spacing:2.43600035px;word-spacing:11.26799965px;writing-mode:lr-tb;text-anchor:middle;fill:#000000;fill-opacity:1;stroke:none;font-family:Futura LT Book;-inkscape-font-specification:'Futura LT Book,'"
       x="381.28198"
       y="810.8623"
       id="text3016-7"
       sodipodi:linespacing="125%"><tspan
         sodipodi:role="line"
         id="tspan3817"
         x="382.49997"
         y="810.8623">PORTLAND STATE AEROSPACE SOCIETY</tspan></text>
    <flowRoot
       xml:space="preserve"
       id="flowRoot3006-6"
       style="font-size:11.66666698px;font-style:normal;font-variant:normal;font-weight:normal;font-stretch:normal;text-align:center;line-height:125%;letter-spacing:0px;word-spacing:0px;writing-mode:lr-tb;text-anchor:middle;fill:#000000;fill-opacity:1;stroke:none;font-family:Helvetica LT Narrow;-inkscape-font-specification:Helvetica LT Narrow"
       transform="matrix(1.2,0,0,1.2,101.10001,454.28094)"><flowRegion
         id="flowRegion3008-6"><rect
           id="rect3010-5"
           width="310.5127"
           height="199.2486"
           x="79.237289"
           y="149.15254"
           style="font-size:11.66666698px;font-style:normal;font-variant:normal;font-weight:normal;font-stretch:normal;text-align:center;line-height:125%;writing-mode:lr-tb;text-anchor:middle;font-family:Helvetica LT Narrow;-inkscape-font-specification:Helvetica LT Narrow" /></flowRegion><flowPara
         id="flowPara3891">LAUNCH SITE SETUP, ROCKET BUTTONUP, COUNTDOWN, LAUNCH, AND RECOVERY PROCEDURES</flowPara></flowRoot>    <text
       xml:space="preserve"
       style="font-size:8.39999962px;font-style:normal;font-variant:normal;font-weight:normal;font-stretch:normal;text-align:center;line-height:125%;letter-spacing:0px;word-spacing:0px;writing-mode:lr-tb;text-anchor:middle;fill:#000000;fill-opacity:1;stroke:none;font-family:Helvetica CE;-inkscape-font-specification:Helvetica CE"
       x="382.5"
       y="782.3623"
       id="text3893"
       sodipodi:linespacing="125%"><tspan
         sodipodi:role="line"
         id="tspan3920"
         x="382.5"
         y="782.3623">Published under authority of</tspan></text>
    <text
       xml:space="preserve"
       style="font-size:25.19999695px;font-style:normal;font-variant:normal;font-weight:300;font-stretch:normal;text-align:start;line-height:125%;letter-spacing:0px;word-spacing:0px;writing-mode:lr-tb;text-anchor:start;fill:#000000;fill-opacity:1;stroke:none;font-family:Helvetica LT CondensedLight;-inkscape-font-specification:Helvetica LT CondensedLight Light"
       x="179.99997"
       y="743.3623"
       id="text3893-2"
       sodipodi:linespacing="125%"><tspan
         sodipodi:role="line"
         id="tspan3922"
         x="179.99997"
         y="743.3623">DATE:</tspan></text>
    <text
       xml:space="preserve"
       style="font-size:25.19999695px;font-style:normal;font-variant:normal;font-weight:300;font-stretch:normal;text-align:start;line-height:125%;letter-spacing:0px;word-spacing:0px;writing-mode:lr-tb;text-anchor:start;fill:#000000;fill-opacity:1;stroke:none;font-family:Helvetica LT CondensedLight;-inkscape-font-specification:Helvetica LT CondensedLight Light"
       x="422.99997"
       y="743.3623"
       id="text3893-2-1"
       sodipodi:linespacing="125%"><tspan
         sodipodi:role="line"
         id="tspan3945"
         x="422.99997"
         y="743.3623">No:</tspan></text>
    <path
       style="fill:none;stroke:#000000;stroke-width:0.324;stroke-linecap:butt;stroke-linejoin:miter;stroke-miterlimit:4;stroke-opacity:1;stroke-dasharray:none"
       d="m 179.99997,746.96232 202.49998,0"
       id="path3947"
       inkscape:connector-curvature="0" />
    <path
       style="fill:none;stroke:#000000;stroke-width:0.324;stroke-linecap:butt;stroke-linejoin:miter;stroke-miterlimit:4;stroke-opacity:1;stroke-dasharray:none"
       d="m 422.99995,746.96232 121.49999,0"
       id="path3949"
       inkscape:connector-curvature="0" />
    <g
       transform="matrix(0.7920678,0,0,0.7920678,343.59329,-391.87712)"
       id="g3965">
      <path
         inkscape:connector-curvature="0"
         id="path2997"
         d="m 390.00034,849.42459 -93.71113,162.31261 -187.42225,0 -93.710904,-162.31261 93.710904,-162.31243 187.42225,0 z"
         style="fill:#6d8f11;fill-opacity:1;stroke:none" />
      <path
         inkscape:connector-curvature="0"
         id="path2997-5-1-0"
         d="m 352.5159,849.42456 -74.9689,129.85008 -149.9378,0 -74.968716,-129.85008 74.968716,-129.84994 149.9378,0 z"
         style="fill:#0e194b;fill-opacity:1;stroke:none" />
      <path
         sodipodi:nodetypes="cscccc"
         inkscape:connector-curvature="0"
         id="path4473-9-8-4"
         d="m 46.634997,841.06436 c 50.253474,-10.89245 102.428373,-16.62941 155.943193,-16.62941 54.61397,0 107.83239,5.97504 159.03723,17.30711 -19.9128,38.34265 -40.33866,91.26676 -59.07875,120.13579 l -199.91695,0 C 110.6049,955.26183 45.464103,841.55039 46.634997,841.06436 z"
         style="fill:#3e4f76;fill-opacity:1;stroke:none" />
      <path
         sodipodi:nodetypes="cscccc"
         inkscape:connector-curvature="0"
         id="path4473-9-8"
         d="m 55.861201,866.58079 c 45.132809,-9.78255 98.655149,-17.15623 146.716989,-17.15623 49.04898,0 99.06592,7.58751 145.05315,17.76487 -17.88376,34.43567 -37.70466,68.76108 -54.5352,94.68844 l -189.9211,0 C 110.34657,955.936 54.809617,867.0173 55.861201,866.58079 z"
         style="fill:#52799e;fill-opacity:1;stroke:none" />
      <path
         sodipodi:nodetypes="cscccc"
         inkscape:connector-curvature="0"
         id="path4473-9"
         d="m 62.525096,890.6953 c 45.132814,-9.78254 91.991254,-14.93493 140.053094,-14.93493 49.04898,0 96.84463,5.36621 142.83185,15.54357 -17.88376,34.43567 -51.03245,70.98238 -67.86299,96.91001 l -149.93771,0 c 7.17152,-5.94187 -66.135828,-97.08214 -65.084244,-97.51865 z"
         style="fill:#7699ba;fill-opacity:1;stroke:none" />
      <path
         sodipodi:nodetypes="csc"
         inkscape:connector-curvature="0"
         id="path4473"
         d="M 73.302477,915.70308 C 114.6204,905.06299 157.9384,899.4038 202.57819,899.4038 c 44.63978,0 87.95778,5.65919 129.27571,16.29928 l -54.30685,83.65922 -149.93771,0 z"
         style="fill:#79b67c;fill-opacity:1;stroke:none" />
      <path
         id="path2997-5"
         d="m 111.99083,692.51059 -90.587369,156.91398 90.587369,156.91393 181.17473,0 90.58737,-156.91393 -90.58737,-156.91398 -181.17473,0 z m 15.61851,27.07208 149.93771,0 74.96885,129.8419 -74.96885,129.84189 -149.93771,0 -74.968856,-129.84189 74.968856,-129.8419 z"
         style="fill:#ffffff;fill-opacity:1;stroke:none"
         inkscape:connector-curvature="0" />
      <g
         transform="matrix(1.1105593,0,0,1.1107401,2.661247,-119.46423)"
         style="font-size:24px;font-style:normal;font-variant:normal;font-weight:bold;font-stretch:normal;text-align:center;line-height:100%;letter-spacing:0.34999999px;writing-mode:lr-tb;text-anchor:middle;fill:#000000;fill-opacity:1;stroke:none;display:inline;font-family:Helvetica CE 55 Roman;-inkscape-font-specification:'Helvetica CE 55 Roman, Bold'"
         id="text3853">
        <path
           d="m 159.06222,1009.9286 12.12,0 0,-3.168 -8.352,0 0,-13.96801 -3.768,0 0,17.13601"
           style="line-height:100%;letter-spacing:0.71697241;fill:#000000;fill-opacity:1;stroke:none;font-family:Helvetica CE 55 Roman;-inkscape-font-specification:'Helvetica CE 55 Roman, Bold'"
           id="path3204"
           inkscape:connector-curvature="0" />
        <path
           d="m 171.86394,1004.8406 7.224,0 0,-2.928 -7.224,0 0,2.928"
           style="line-height:100%;letter-spacing:0.71697241;fill:#000000;fill-opacity:1;stroke:none;font-family:Helvetica CE 55 Roman;-inkscape-font-specification:'Helvetica CE 55 Roman, Bold'"
           id="path3206"
           inkscape:connector-curvature="0" />
        <path
           d="m 188.63205,993.12859 -2.712,0 c -0.096,0.64002 -0.296,1.17601 -0.6,1.608 -0.288,0.43201 -0.656,0.78401 -1.104,1.056 -0.448,0.25601 -0.952,0.44001 -1.512,0.552 -0.544,0.096 -1.112,0.13601 -1.704,0.12 l 0,2.568 4.224,0 0,10.89601 3.408,0 0,-16.80001"
           style="line-height:100%;letter-spacing:0.71697241;fill:#000000;fill-opacity:1;stroke:none;font-family:Helvetica CE 55 Roman;-inkscape-font-specification:'Helvetica CE 55 Roman, Bold'"
           id="path3208"
           inkscape:connector-curvature="0" />
        <path
           d="m 198.6717,993.12859 -2.712,0 c -0.096,0.64002 -0.296,1.17601 -0.6,1.608 -0.288,0.43201 -0.656,0.78401 -1.104,1.056 -0.448,0.25601 -0.952,0.44001 -1.512,0.552 -0.544,0.096 -1.112,0.13601 -1.704,0.12 l 0,2.568 4.224,0 0,10.89601 3.408,0 0,-16.80001"
           style="line-height:100%;letter-spacing:0.71697241;fill:#000000;fill-opacity:1;stroke:none;font-family:Helvetica CE 55 Roman;-inkscape-font-specification:'Helvetica CE 55 Roman, Bold'"
           id="path3210"
           inkscape:connector-curvature="0" />
      </g>
      <g
         transform="matrix(0.55527965,-0.96177256,0.96192915,0.55537005,2.661247,-119.46423)"
         style="font-size:20px;font-style:normal;font-variant:normal;font-weight:normal;font-stretch:normal;text-align:center;line-height:125%;letter-spacing:0.80000001px;word-spacing:3px;writing-mode:lr-tb;text-anchor:middle;opacity:0.98999999;fill:#646464;fill-opacity:1;stroke:none;display:inline;font-family:Futura LT Book;-inkscape-font-specification:'Futura LT Book,'"
         id="text3853-6">
        <path
           d="m -703.13819,469.14423 -1.68,0 0,-13.52 -3.64,0 0,-1.56 9,0 0,1.56 -3.68,0 0,13.52"
           id="path4085"
           inkscape:connector-curvature="0" />
        <path
           d="m -692.41632,463.42423 c -0.0533,-0.33333 -0.16667,-0.64666 -0.34,-0.94 -0.16,-0.30666 -0.36,-0.57333 -0.6,-0.8 -0.24,-0.22666 -0.52,-0.4 -0.84,-0.52 -0.30667,-0.13333 -0.63333,-0.2 -0.98,-0.2 -0.34667,0 -0.68,0.0667 -1,0.2 -0.32,0.12 -0.61333,0.29334 -0.88,0.52 -0.25333,0.22667 -0.46667,0.49334 -0.64,0.8 -0.17333,0.29334 -0.28666,0.60667 -0.34,0.94 l 5.62,0 m -5.7,1.36 c 0,0.44 0.0733,0.85333 0.22,1.24 0.16,0.37333 0.37333,0.7 0.64,0.98 0.26667,0.28 0.58667,0.50666 0.96,0.68 0.38667,0.16 0.80667,0.24 1.26,0.24 0.68,0 1.24666,-0.18 1.7,-0.54 0.46666,-0.37334 0.85333,-0.84 1.16,-1.4 l 1.36,0.78 c -0.45334,0.84 -1.05334,1.49333 -1.8,1.96 -0.73334,0.45333 -1.58,0.68 -2.54,0.68 -0.70667,0 -1.34667,-0.12667 -1.92,-0.38 -0.56,-0.25334 -1.04,-0.59334 -1.44,-1.02 -0.4,-0.44 -0.70666,-0.95334 -0.92,-1.54 -0.21333,-0.58667 -0.32,-1.22 -0.32,-1.9 0,-0.69333 0.1,-1.34666 0.3,-1.96 0.2,-0.62666 0.49334,-1.16666 0.88,-1.62 0.38667,-0.46666 0.86,-0.83333 1.42,-1.1 0.57333,-0.26666 1.22667,-0.39999 1.96,-0.4 0.76,10e-6 1.42666,0.14667 2,0.44 0.57333,0.28001 1.04666,0.66667 1.42,1.16 0.38666,0.49334 0.66666,1.06 0.84,1.7 0.17333,0.64 0.23999,1.30667 0.2,2 l -7.38,0"
           id="path4087"
           inkscape:connector-curvature="0" />
        <path
           d="m -686.16569,469.14423 -1.6,0 0,-16.5 1.6,0 0,16.5"
           id="path4089"
           inkscape:connector-curvature="0" />
        <path
           d="m -675.89444,463.42423 c -0.0533,-0.33333 -0.16668,-0.64666 -0.34,-0.94 -0.16001,-0.30666 -0.36001,-0.57333 -0.6,-0.8 -0.24001,-0.22666 -0.52001,-0.4 -0.84,-0.52 -0.30667,-0.13333 -0.63334,-0.2 -0.98,-0.2 -0.34667,0 -0.68001,0.0667 -1,0.2 -0.32001,0.12 -0.61334,0.29334 -0.88,0.52 -0.25334,0.22667 -0.46667,0.49334 -0.64,0.8 -0.17334,0.29334 -0.28667,0.60667 -0.34,0.94 l 5.62,0 m -5.7,1.36 c 0,0.44 0.0733,0.85333 0.22,1.24 0.16,0.37333 0.37333,0.7 0.64,0.98 0.26666,0.28 0.58666,0.50666 0.96,0.68 0.38666,0.16 0.80666,0.24 1.26,0.24 0.67999,0 1.24666,-0.18 1.7,-0.54 0.46666,-0.37334 0.85332,-0.84 1.16,-1.4 l 1.36,0.78 c -0.45334,0.84 -1.05334,1.49333 -1.8,1.96 -0.73334,0.45333 -1.58001,0.68 -2.54,0.68 -0.70667,0 -1.34667,-0.12667 -1.92,-0.38 -0.56,-0.25334 -1.04,-0.59334 -1.44,-1.02 -0.4,-0.44 -0.70667,-0.95334 -0.92,-1.54 -0.21334,-0.58667 -0.32,-1.22 -0.32,-1.9 0,-0.69333 0.1,-1.34666 0.3,-1.96 0.2,-0.62666 0.49333,-1.16666 0.88,-1.62 0.38666,-0.46666 0.86,-0.83333 1.42,-1.1 0.57333,-0.26666 1.22666,-0.39999 1.96,-0.4 0.75999,10e-6 1.42666,0.14667 2,0.44 0.57332,0.28001 1.04666,0.66667 1.42,1.16 0.38666,0.49334 0.66666,1.06 0.84,1.7 0.17332,0.64 0.23999,1.30667 0.2,2 l -7.38,0"
           id="path4091"
           inkscape:connector-curvature="0" />
        <path
           d="m -669.60382,460.76423 0.04,0 c 0.25333,-0.38666 0.57333,-0.69333 0.96,-0.92 0.38667,-0.23999 0.82,-0.35999 1.3,-0.36 0.56,10e-6 1.06666,0.14001 1.52,0.42 0.46666,0.26667 0.82666,0.64667 1.08,1.14 0.28,-0.52 0.67333,-0.90666 1.18,-1.16 0.52,-0.26666 1.06666,-0.39999 1.64,-0.4 0.59999,10e-6 1.09333,0.11334 1.48,0.34 0.38666,0.22667 0.69333,0.52667 0.92,0.9 0.22666,0.36 0.37999,0.78 0.46,1.26 0.0933,0.46667 0.13999,0.94667 0.14,1.44 l 0,5.72 -1.6,0 0,-5.46 c -10e-6,-0.30666 -0.0133,-0.62 -0.04,-0.94 -0.0267,-0.32 -0.10001,-0.61333 -0.22,-0.88 -0.10667,-0.26666 -0.27334,-0.48 -0.5,-0.64 -0.22667,-0.17333 -0.54667,-0.26 -0.96,-0.26 -0.46667,0 -0.83334,0.1 -1.1,0.3 -0.26667,0.2 -0.47334,0.46 -0.62,0.78 -0.13334,0.30667 -0.22,0.64667 -0.26,1.02 -0.04,0.37334 -0.06,0.74 -0.06,1.1 l 0,4.98 -1.6,0 0,-5.34 c 0,-0.29333 -0.02,-0.60666 -0.06,-0.94 -0.0267,-0.33333 -0.1,-0.64 -0.22,-0.92 -0.10667,-0.28 -0.27333,-0.51333 -0.5,-0.7 -0.21333,-0.18666 -0.51333,-0.28 -0.9,-0.28 -0.46667,0 -0.84,0.10667 -1.12,0.32 -0.28,0.21334 -0.49333,0.48667 -0.64,0.82 -0.13333,0.32 -0.22,0.67334 -0.26,1.06 -0.04,0.38667 -0.06,0.76 -0.06,1.12 l 0,4.86 -1.6,0 0,-9.4 1.6,0 0,1.02"
           id="path4093"
           inkscape:connector-curvature="0" />
        <path
           d="m -648.55225,463.42423 c -0.0533,-0.33333 -0.16668,-0.64666 -0.34,-0.94 -0.16001,-0.30666 -0.36001,-0.57333 -0.6,-0.8 -0.24001,-0.22666 -0.52001,-0.4 -0.84,-0.52 -0.30668,-0.13333 -0.63334,-0.2 -0.98,-0.2 -0.34668,0 -0.68001,0.0667 -1,0.2 -0.32001,0.12 -0.61334,0.29334 -0.88,0.52 -0.25334,0.22667 -0.46667,0.49334 -0.64,0.8 -0.17334,0.29334 -0.28667,0.60667 -0.34,0.94 l 5.62,0 m -5.7,1.36 c -10e-6,0.44 0.0733,0.85333 0.22,1.24 0.15999,0.37333 0.37333,0.7 0.64,0.98 0.26666,0.28 0.58666,0.50666 0.96,0.68 0.38666,0.16 0.80666,0.24 1.26,0.24 0.67999,0 1.24666,-0.18 1.7,-0.54 0.46666,-0.37334 0.85332,-0.84 1.16,-1.4 l 1.36,0.78 c -0.45335,0.84 -1.05335,1.49333 -1.8,1.96 -0.73334,0.45333 -1.58001,0.68 -2.54,0.68 -0.70667,0 -1.34667,-0.12667 -1.92,-0.38 -0.56001,-0.25334 -1.04001,-0.59334 -1.44,-1.02 -0.4,-0.44 -0.70667,-0.95334 -0.92,-1.54 -0.21334,-0.58667 -0.32,-1.22 -0.32,-1.9 0,-0.69333 0.1,-1.34666 0.3,-1.96 0.2,-0.62666 0.49333,-1.16666 0.88,-1.62 0.38666,-0.46666 0.85999,-0.83333 1.42,-1.1 0.57333,-0.26666 1.22666,-0.39999 1.96,-0.4 0.75999,10e-6 1.42666,0.14667 2,0.44 0.57332,0.28001 1.04665,0.66667 1.42,1.16 0.38665,0.49334 0.66665,1.06 0.84,1.7 0.17332,0.64 0.23999,1.30667 0.2,2 l -7.38,0"
           id="path4095"
           inkscape:connector-curvature="0" />
        <path
           d="m -642.18163,469.14423 -1.6,0 0,-7.92 -0.98,0 0,-1.48 0.98,0 0,-3.38 1.6,0 0,3.38 1.68,0 0,1.48 -1.68,0 0,7.92"
           id="path4097"
           inkscape:connector-curvature="0" />
        <path
           d="m -636.73694,460.76423 0.04,0 c 0.27999,-0.37333 0.56666,-0.67999 0.86,-0.92 0.29333,-0.23999 0.69999,-0.35999 1.22,-0.36 0.26666,10e-6 0.51333,0.04 0.74,0.12 0.23999,0.08 0.47332,0.18667 0.7,0.32 l -0.76,1.46 c -0.16001,-0.10666 -0.30667,-0.2 -0.44,-0.28 -0.13334,-0.0933 -0.30667,-0.14 -0.52,-0.14 -0.44001,0 -0.78667,0.12667 -1.04,0.38 -0.24001,0.24 -0.42001,0.54 -0.54,0.9 -0.12001,0.36 -0.19334,0.74 -0.22,1.14 -0.0267,0.4 -0.04,0.75333 -0.04,1.06 l 0,4.7 -1.6,0 0,-9.4 1.6,0 0,1.02"
           id="path4099"
           inkscape:connector-curvature="0" />
        <path
           d="m -631.51694,459.74423 1.86,0 3.32,6.74 3.04,-6.74 1.82,0 -6.94,14.68 -1.82,0 3.04,-6.16 -4.32,-8.52"
           id="path4101"
           inkscape:connector-curvature="0" />
      </g>
      <g
         transform="matrix(1.1105593,0,0,1.1107401,2.661247,-119.46423)"
         style="font-size:24px;font-style:normal;font-variant:normal;font-weight:900;font-stretch:normal;text-align:center;line-height:125%;letter-spacing:8.77000046px;writing-mode:lr-tb;text-anchor:middle;fill:#000000;fill-opacity:1;stroke:none;display:inline;font-family:Helvetica LT Black;-inkscape-font-specification:'Helvetica LT Black, Heavy'"
         id="text3853-60">
        <path
           d="m 140.8999,742.0934 c 0.67199,10e-6 1.21599,-0.14399 1.632,-0.432 0.43199,-0.30399 0.64799,-0.83199 0.648,-1.584 -1e-5,-0.39998 -0.10401,-0.71998 -0.312,-0.96 -0.19201,-0.23998 -0.44001,-0.42398 -0.744,-0.552 -0.30401,-0.12798 -0.63201,-0.20798 -0.984,-0.24 -0.35201,-0.048 -0.68001,-0.072 -0.984,-0.072 l -1.608,0 0,3.84 2.352,0 m -8.016,9.408 0,-17.28 8.328,0 c 2.47999,2e-5 4.32798,0.52802 5.544,1.584 1.21598,1.05602 1.82398,2.47202 1.824,4.248 -2e-5,0.92801 -0.14402,1.76801 -0.432,2.52 -0.27202,0.75201 -0.70402,1.39201 -1.296,1.92 -0.59202,0.52801 -1.33602,0.93601 -2.232,1.224 -0.89601,0.27201 -1.96801,0.40801 -3.216,0.408 l -2.856,0 0,5.376 -5.664,0"
           style="stroke:none"
           id="path3195"
           inkscape:connector-curvature="0" />
        <path
           d="m 168.30965,739.2374 c -0.048,-0.30398 -0.14401,-0.54398 -0.288,-0.72 -0.14401,-0.19198 -0.32001,-0.34398 -0.528,-0.456 -0.40001,-0.20798 -0.88801,-0.31198 -1.464,-0.312 -0.62401,2e-5 -1.08001,0.088 -1.368,0.264 -0.28801,0.16002 -0.43201,0.40002 -0.432,0.72 -1e-5,0.32002 0.14399,0.58402 0.432,0.792 0.28799,0.20802 0.66399,0.39202 1.128,0.552 0.46399,0.16002 0.99199,0.31201 1.584,0.456 0.59199,0.12801 1.19999,0.28001 1.824,0.456 0.62399,0.17601 1.23199,0.39201 1.824,0.648 0.59198,0.24001 1.11998,0.56001 1.584,0.96 0.46398,0.38401 0.83998,0.85601 1.128,1.416 0.28798,0.54401 0.43198,1.20801 0.432,1.992 -2e-5,1.00801 -0.20002,1.88801 -0.6,2.64 -0.40002,0.73601 -0.96002,1.35201 -1.68,1.848 -0.70402,0.48 -1.55201,0.84 -2.544,1.08 -0.99201,0.256 -2.08001,0.384 -3.264,0.384 -1.13601,0 -2.16801,-0.152 -3.096,-0.456 -0.92801,-0.32 -1.72801,-0.744 -2.4,-1.272 -0.656,-0.52799 -1.176,-1.13599 -1.56,-1.824 -0.368,-0.70399 -0.568,-1.44799 -0.6,-2.232 l 5.424,0 c 0.11199,0.60801 0.42399,1.06401 0.936,1.368 0.22399,0.14401 0.47999,0.25601 0.768,0.336 0.28799,0.064 0.56799,0.096 0.84,0.096 0.71999,10e-6 1.28799,-0.10399 1.704,-0.312 0.43199,-0.22399 0.64799,-0.54399 0.648,-0.96 -1e-5,-0.43199 -0.24801,-0.75999 -0.744,-0.984 -0.48001,-0.23999 -1.08801,-0.44799 -1.824,-0.624 -0.73601,-0.19199 -1.53601,-0.39199 -2.4,-0.6 -0.86401,-0.22399 -1.66401,-0.53599 -2.4,-0.936 -0.736,-0.39999 -1.352,-0.93599 -1.848,-1.608 -0.48,-0.67199 -0.72,-1.55999 -0.72,-2.664 0,-0.91198 0.184,-1.71198 0.552,-2.4 0.384,-0.70398 0.904,-1.27998 1.56,-1.728 0.67199,-0.46398 1.46399,-0.80798 2.376,-1.032 0.91199,-0.23998 1.91199,-0.35998 3,-0.36 1.19999,2e-5 2.23999,0.14402 3.12,0.432 0.87999,0.28802 1.61598,0.68002 2.208,1.176 0.60798,0.49602 1.07998,1.08002 1.416,1.752 0.33598,0.65602 0.55198,1.36002 0.648,2.112 l -5.376,0"
           style="stroke:none"
           id="path3197"
           inkscape:connector-curvature="0" />
        <path
           d="m 193.0314,739.4294 -1.752,6.192 3.576,0 -1.824,-6.192 m -9.024,12.072 6.192,-17.28 5.76,0 6.192,17.28 -5.64,0 -0.672,-2.28 -5.64,0 -0.648,2.28 -5.544,0"
           style="stroke:none"
           id="path3199"
           inkscape:connector-curvature="0" />
        <path
           d="m 221.84965,739.2374 c -0.048,-0.30398 -0.14402,-0.54398 -0.288,-0.72 -0.14401,-0.19198 -0.32001,-0.34398 -0.528,-0.456 -0.40001,-0.20798 -0.88801,-0.31198 -1.464,-0.312 -0.62401,2e-5 -1.08001,0.088 -1.368,0.264 -0.28801,0.16002 -0.43201,0.40002 -0.432,0.72 -1e-5,0.32002 0.14399,0.58402 0.432,0.792 0.28799,0.20802 0.66399,0.39202 1.128,0.552 0.46399,0.16002 0.99199,0.31201 1.584,0.456 0.59198,0.12801 1.19998,0.28001 1.824,0.456 0.62398,0.17601 1.23198,0.39201 1.824,0.648 0.59198,0.24001 1.11998,0.56001 1.584,0.96 0.46398,0.38401 0.83998,0.85601 1.128,1.416 0.28798,0.54401 0.43198,1.20801 0.432,1.992 -2e-5,1.00801 -0.20002,1.88801 -0.6,2.64 -0.40002,0.73601 -0.96002,1.35201 -1.68,1.848 -0.70402,0.48 -1.55202,0.84 -2.544,1.08 -0.99202,0.256 -2.08001,0.384 -3.264,0.384 -1.13601,0 -2.16801,-0.152 -3.096,-0.456 -0.92801,-0.32 -1.72801,-0.744 -2.4,-1.272 -0.65601,-0.52799 -1.17601,-1.13599 -1.56,-1.824 -0.36801,-0.70399 -0.56801,-1.44799 -0.6,-2.232 l 5.424,0 c 0.11199,0.60801 0.42399,1.06401 0.936,1.368 0.22399,0.14401 0.47999,0.25601 0.768,0.336 0.28799,0.064 0.56799,0.096 0.84,0.096 0.71999,10e-6 1.28799,-0.10399 1.704,-0.312 0.43198,-0.22399 0.64798,-0.54399 0.648,-0.96 -2e-5,-0.43199 -0.24802,-0.75999 -0.744,-0.984 -0.48001,-0.23999 -1.08801,-0.44799 -1.824,-0.624 -0.73601,-0.19199 -1.53601,-0.39199 -2.4,-0.6 -0.86401,-0.22399 -1.66401,-0.53599 -2.4,-0.936 -0.73601,-0.39999 -1.35201,-0.93599 -1.848,-1.608 -0.48001,-0.67199 -0.72001,-1.55999 -0.72,-2.664 -1e-5,-0.91198 0.18399,-1.71198 0.552,-2.4 0.38399,-0.70398 0.90399,-1.27998 1.56,-1.728 0.67199,-0.46398 1.46399,-0.80798 2.376,-1.032 0.91199,-0.23998 1.91199,-0.35998 3,-0.36 1.19999,2e-5 2.23998,0.14402 3.12,0.432 0.87998,0.28802 1.61598,0.68002 2.208,1.176 0.60798,0.49602 1.07998,1.08002 1.416,1.752 0.33598,0.65602 0.55198,1.36002 0.648,2.112 l -5.376,0"
           style="stroke:none"
           id="path3201"
           inkscape:connector-curvature="0" />
      </g>
      <g
         transform="matrix(-0.55527965,0.96177256,-0.96192915,-0.55537005,2.661247,-119.46423)"
         style="font-size:20px;font-style:normal;font-variant:normal;font-weight:normal;font-stretch:normal;text-align:center;line-height:125%;letter-spacing:0.80000001px;writing-mode:lr-tb;text-anchor:middle;fill:#646464;fill-opacity:1;stroke:none;display:inline;font-family:Futura LT Book;-inkscape-font-specification:'Futura LT Book,'"
         id="text3853-60-3">
        <path
           d="m 633.19954,-715.14466 c 0.45333,1e-5 0.89333,-0.02 1.32,-0.06 0.42666,-0.04 0.83333,-0.11333 1.22,-0.22 0.39999,-0.11999 0.77999,-0.27999 1.14,-0.48 0.37333,-0.21333 0.73333,-0.47999 1.08,-0.8 0.62666,-0.58666 1.09332,-1.25999 1.4,-2.02 0.31999,-0.75999 0.47999,-1.55999 0.48,-2.4 -1e-5,-0.86665 -0.16668,-1.69332 -0.5,-2.48 -0.32001,-0.78665 -0.80668,-1.46665 -1.46,-2.04 -0.69334,-0.61332 -1.42667,-1.00665 -2.2,-1.18 -0.76001,-0.18665 -1.58667,-0.27998 -2.48,-0.28 l -1.22,0 0,11.96 1.22,0 m -2.9,-13.52 2.84,0 c 0.56,2e-5 1.1,0.0267 1.62,0.08 0.51999,0.04 1.01999,0.12669 1.5,0.26 0.47999,0.13335 0.94666,0.32002 1.4,0.56 0.46666,0.24002 0.91999,0.54668 1.36,0.92 0.86666,0.74668 1.49999,1.60668 1.9,2.58 0.39999,0.97335 0.59999,2.02668 0.6,3.16 -10e-6,1.10668 -0.20001,2.13334 -0.6,3.08 -0.40001,0.94667 -1.02001,1.79334 -1.86,2.54 -0.45334,0.40001 -0.90668,0.72667 -1.36,0.98 -0.45334,0.24 -0.92667,0.43334 -1.42,0.58 -0.48001,0.13334 -0.98667,0.22667 -1.52,0.28 -0.52,0.04 -1.07334,0.06 -1.66,0.06 l -2.8,0 0,-15.08"
           id="path4065"
           inkscape:connector-curvature="0" />
        <path
           d="m 643.73423,-722.98466 1.96,0 2.46,3.2 2.46,-3.2 2,0 -3.44,4.4 3.9,5 -1.94,0 -2.98,-3.82 -3,3.82 -2,0 4,-5 -3.42,-4.4"
           id="path4067"
           inkscape:connector-curvature="0" />
        <path
           d="m 659.93517,-717.36466 4.88,-12.08 4.88,12.08 3.96,-11.3 1.82,0 -5.78,15.86 -4.88,-12.14 -4.88,12.14 -5.78,-15.86 1.82,0 3.96,11.3"
           id="path4069"
           inkscape:connector-curvature="0" />
        <path
           d="m 678.76048,-727.66466 c 0.30666,2e-5 0.57333,0.11335 0.8,0.34 0.22666,0.22668 0.34,0.49335 0.34,0.8 0,0.32002 -0.11334,0.59335 -0.34,0.82 -0.22667,0.21335 -0.49334,0.32002 -0.8,0.32 -0.30667,2e-5 -0.57334,-0.10665 -0.8,-0.32 -0.22667,-0.22665 -0.34,-0.49998 -0.34,-0.82 0,-0.30665 0.11333,-0.57332 0.34,-0.8 0.22666,-0.22665 0.49333,-0.33998 0.8,-0.34 m 0.8,14.08 -1.6,0 0,-9.4 1.6,0 0,9.4"
           id="path4071"
           inkscape:connector-curvature="0" />
        <path
           d="m 685.37485,-727.10466 0,4.48 5.02,0 0,1.56 -5.02,0 0,7.48 -1.68,0 0,-15.08 6.86,0 0,1.56 -5.18,0"
           id="path4073"
           inkscape:connector-curvature="0" />
        <path
           d="m 695.16517,-727.66466 c 0.30666,2e-5 0.57333,0.11335 0.8,0.34 0.22666,0.22668 0.33999,0.49335 0.34,0.8 -10e-6,0.32002 -0.11334,0.59335 -0.34,0.82 -0.22667,0.21335 -0.49334,0.32002 -0.8,0.32 -0.30667,2e-5 -0.57334,-0.10665 -0.8,-0.32 -0.22667,-0.22665 -0.34001,-0.49998 -0.34,-0.82 -10e-6,-0.30665 0.11333,-0.57332 0.34,-0.8 0.22666,-0.22665 0.49333,-0.33998 0.8,-0.34 m 0.8,14.08 -1.6,0 0,-9.4 1.6,0 0,9.4"
           id="path4075"
           inkscape:connector-curvature="0" />
      </g>
      <g
         transform="matrix(-0.55527965,-0.96177256,0.96192915,-0.55537005,2.661247,-119.46423)"
         style="font-size:20px;font-style:normal;font-variant:normal;font-weight:normal;font-stretch:normal;text-align:center;line-height:125%;letter-spacing:0.80000001px;writing-mode:lr-tb;text-anchor:middle;fill:#646464;fill-opacity:1;stroke:none;display:inline;font-family:Futura LT Book;-inkscape-font-specification:'Futura LT Book,'"
         id="text3853-60-8">
        <path
           d="m -881.47464,-417.58436 7.82,0 0,1.56 -6.14,0 0,4.48 5.96,0 0,1.56 -5.96,0 0,5.92 6.14,0 0,1.56 -7.82,0 0,-15.08"
           id="path4048"
           inkscape:connector-curvature="0" />
        <path
           d="m -868.33058,-402.50436 -1.6,0 0,-7.92 -0.98,0 0,-1.48 0.98,0 0,-3.38 1.6,0 0,3.38 1.68,0 0,1.48 -1.68,0 0,7.92"
           id="path4050"
           inkscape:connector-curvature="0" />
        <path
           d="m -862.80589,-419.00436 0,8.2 0.04,0.04 c 0.33333,-0.45333 0.71333,-0.79999 1.14,-1.04 0.43999,-0.23999 0.95333,-0.35999 1.54,-0.36 0.65333,10e-6 1.18666,0.11334 1.6,0.34 0.41332,0.21334 0.73999,0.50667 0.98,0.88 0.23999,0.37334 0.39999,0.80667 0.48,1.3 0.0933,0.49334 0.13999,1.01334 0.14,1.56 l 0,5.58 -1.6,0 0,-5.3 c -10e-6,-0.37333 -0.02,-0.73333 -0.06,-1.08 -0.0267,-0.36 -0.10667,-0.66666 -0.24,-0.92 -0.12001,-0.26666 -0.31334,-0.48 -0.58,-0.64 -0.26667,-0.16 -0.63334,-0.24 -1.1,-0.24 -0.54667,0 -0.98001,0.12 -1.3,0.36 -0.30667,0.22667 -0.54,0.52 -0.7,0.88 -0.14667,0.36 -0.24,0.76 -0.28,1.2 -0.04,0.44 -0.06,0.86667 -0.06,1.28 l 0,4.46 -1.6,0 0,-16.5 1.6,0"
           id="path4052"
           inkscape:connector-curvature="0" />
        <path
           d="m -846.55902,-408.22436 c -0.0533,-0.33333 -0.16667,-0.64666 -0.34,-0.94 -0.16,-0.30666 -0.36,-0.57333 -0.6,-0.8 -0.24,-0.22666 -0.52,-0.4 -0.84,-0.52 -0.30667,-0.13333 -0.63334,-0.2 -0.98,-0.2 -0.34667,0 -0.68,0.0667 -1,0.2 -0.32,0.12 -0.61333,0.29334 -0.88,0.52 -0.25333,0.22667 -0.46667,0.49334 -0.64,0.8 -0.17333,0.29334 -0.28667,0.60667 -0.34,0.94 l 5.62,0 m -5.7,1.36 c 0,0.44 0.0733,0.85333 0.22,1.24 0.16,0.37333 0.37333,0.7 0.64,0.98 0.26667,0.28 0.58667,0.50666 0.96,0.68 0.38667,0.16 0.80667,0.24 1.26,0.24 0.68,0 1.24666,-0.18 1.7,-0.54 0.46666,-0.37334 0.85333,-0.84 1.16,-1.4 l 1.36,0.78 c -0.45334,0.84 -1.05334,1.49333 -1.8,1.96 -0.73334,0.45333 -1.58,0.68 -2.54,0.68 -0.70667,0 -1.34667,-0.12667 -1.92,-0.38 -0.56,-0.25334 -1.04,-0.59334 -1.44,-1.02 -0.4,-0.44 -0.70666,-0.95334 -0.92,-1.54 -0.21333,-0.58667 -0.32,-1.22 -0.32,-1.9 0,-0.69333 0.1,-1.34666 0.3,-1.96 0.2,-0.62666 0.49334,-1.16666 0.88,-1.62 0.38667,-0.46666 0.86,-0.83333 1.42,-1.1 0.57333,-0.26666 1.22667,-0.39999 1.96,-0.4 0.76,10e-6 1.42666,0.14667 2,0.44 0.57333,0.28 1.04666,0.66667 1.42,1.16 0.38666,0.49334 0.66666,1.06 0.84,1.7 0.17333,0.64 0.23999,1.30667 0.2,2 l -7.38,0"
           id="path4054"
           inkscape:connector-curvature="0" />
        <path
           d="m -840.34839,-410.88436 0.04,0 c 0.28,-0.37333 0.56666,-0.67999 0.86,-0.92 0.29333,-0.23999 0.69999,-0.35999 1.22,-0.36 0.26666,10e-6 0.51333,0.04 0.74,0.12 0.23999,0.08 0.47333,0.18667 0.7,0.32 l -0.76,1.46 c -0.16001,-0.10666 -0.30667,-0.2 -0.44,-0.28 -0.13334,-0.0933 -0.30667,-0.14 -0.52,-0.14 -0.44,0 -0.78667,0.12667 -1.04,0.38 -0.24,0.24 -0.42,0.54 -0.54,0.9 -0.12,0.36 -0.19334,0.74 -0.22,1.14 -0.0267,0.4 -0.04,0.75333 -0.04,1.06 l 0,4.7 -1.6,0 0,-9.4 1.6,0 0,1.02"
           id="path4056"
           inkscape:connector-curvature="0" />
        <path
           d="m -832.59339,-410.76436 0.04,0 c 0.33333,-0.45333 0.71333,-0.79999 1.14,-1.04 0.43999,-0.23999 0.95333,-0.35999 1.54,-0.36 0.65333,10e-6 1.18666,0.11334 1.6,0.34 0.41332,0.21334 0.73999,0.50667 0.98,0.88 0.23999,0.37334 0.39999,0.80667 0.48,1.3 0.0933,0.49334 0.13999,1.01334 0.14,1.56 l 0,5.58 -1.6,0 0,-5.3 c -1e-5,-0.37333 -0.02,-0.73333 -0.06,-1.08 -0.0267,-0.36 -0.10668,-0.66666 -0.24,-0.92 -0.12001,-0.26666 -0.31334,-0.48 -0.58,-0.64 -0.26667,-0.16 -0.63334,-0.24 -1.1,-0.24 -0.54667,0 -0.98001,0.12 -1.3,0.36 -0.30667,0.22667 -0.54,0.52 -0.7,0.88 -0.14667,0.36 -0.24,0.76 -0.28,1.2 -0.04,0.44 -0.06,0.86667 -0.06,1.28 l 0,4.46 -1.6,0 0,-9.4 1.6,0 0,1.14"
           id="path4058"
           inkscape:connector-curvature="0" />
        <path
           d="m -816.34652,-408.22436 c -0.0533,-0.33333 -0.16667,-0.64666 -0.34,-0.94 -0.16,-0.30666 -0.36,-0.57333 -0.6,-0.8 -0.24,-0.22666 -0.52,-0.4 -0.84,-0.52 -0.30667,-0.13333 -0.63334,-0.2 -0.98,-0.2 -0.34667,0 -0.68,0.0667 -1,0.2 -0.32,0.12 -0.61333,0.29334 -0.88,0.52 -0.25333,0.22667 -0.46667,0.49334 -0.64,0.8 -0.17333,0.29334 -0.28667,0.60667 -0.34,0.94 l 5.62,0 m -5.7,1.36 c 0,0.44 0.0733,0.85333 0.22,1.24 0.16,0.37333 0.37333,0.7 0.64,0.98 0.26667,0.28 0.58667,0.50666 0.96,0.68 0.38667,0.16 0.80666,0.24 1.26,0.24 0.68,0 1.24666,-0.18 1.7,-0.54 0.46666,-0.37334 0.85333,-0.84 1.16,-1.4 l 1.36,0.78 c -0.45334,0.84 -1.05334,1.49333 -1.8,1.96 -0.73334,0.45333 -1.58,0.68 -2.54,0.68 -0.70667,0 -1.34667,-0.12667 -1.92,-0.38 -0.56,-0.25334 -1.04,-0.59334 -1.44,-1.02 -0.4,-0.44 -0.70666,-0.95334 -0.92,-1.54 -0.21333,-0.58667 -0.32,-1.22 -0.32,-1.9 0,-0.69333 0.1,-1.34666 0.3,-1.96 0.2,-0.62666 0.49333,-1.16666 0.88,-1.62 0.38667,-0.46666 0.86,-0.83333 1.42,-1.1 0.57333,-0.26666 1.22667,-0.39999 1.96,-0.4 0.76,10e-6 1.42666,0.14667 2,0.44 0.57333,0.28 1.04666,0.66667 1.42,1.16 0.38666,0.49334 0.66666,1.06 0.84,1.7 0.17333,0.64 0.23999,1.30667 0.2,2 l -7.38,0"
           id="path4060"
           inkscape:connector-curvature="0" />
        <path
           d="m -809.97589,-402.50436 -1.6,0 0,-7.92 -0.98,0 0,-1.48 0.98,0 0,-3.38 1.6,0 0,3.38 1.68,0 0,1.48 -1.68,0 0,7.92"
           id="path4062"
           inkscape:connector-curvature="0" />
      </g>
      <g
         transform="matrix(0.55527965,0.96177256,-0.96192915,0.55537005,2.661247,-119.46423)"
         style="font-size:20px;font-style:normal;font-variant:normal;font-weight:normal;font-stretch:normal;text-align:center;line-height:125%;letter-spacing:0.80000001px;writing-mode:lr-tb;text-anchor:middle;fill:#646464;fill-opacity:1;stroke:none;display:inline;font-family:Futura LT Book;-inkscape-font-specification:'Futura LT Book,'"
         id="text3853-60-1">
        <path
           d="m 823.54795,159.11914 -1.68,0 0,-15.08 2.18,0 c 0.71999,2e-5 1.40666,0.06 2.06,0.18 0.66666,0.10668 1.25333,0.31335 1.76,0.62 0.51999,0.30668 0.93332,0.73335 1.24,1.28 0.30666,0.53335 0.45999,1.22668 0.46,2.08 -10e-6,1.17334 -0.34001,2.13334 -1.02,2.88 -0.66667,0.74667 -1.58667,1.17334 -2.76,1.28 l 4.8,6.76 -2.06,0 -4.56,-6.62 -0.42,0 0,6.62 m 0,-8.1 0.52,0 c 0.48,1e-5 0.94666,-0.0267 1.4,-0.08 0.45333,-0.0667 0.85999,-0.19332 1.22,-0.38 0.35999,-0.19999 0.64666,-0.47332 0.86,-0.82 0.22666,-0.35999 0.33999,-0.83332 0.34,-1.42 -1e-5,-0.61332 -0.10667,-1.09999 -0.32,-1.46 -0.21334,-0.37332 -0.50001,-0.64665 -0.86,-0.82 -0.34667,-0.18665 -0.75334,-0.30665 -1.22,-0.36 -0.45334,-0.0533 -0.93334,-0.08 -1.44,-0.08 l -0.5,0 0,5.42"
           id="path4078"
           inkscape:connector-curvature="0" />
        <path
           d="m 833.62732,143.39914 11.76,12.32 0,-11.68 1.68,0 0,15.76 -11.76,-12.3 0,11.62 -1.68,0 0,-15.72"
           id="path4080"
           inkscape:connector-curvature="0" />
        <path
           d="m 860.48701,150.15914 0,-6.12 1.68,0 0,15.08 -1.68,0 0,-7.4 -7.72,0 0,7.4 -1.68,0 0,-15.08 1.68,0 0,6.12 7.72,0"
           id="path4082"
           inkscape:connector-curvature="0" />
      </g>
      <path
         sodipodi:nodetypes="csscccccssccc"
         inkscape:connector-curvature="0"
         id="path4433-5-2"
         d="m 227.75708,812.64341 c 11.6731,-2.97142 17.52932,-7.41432 17.52932,-13.03642 0,-9.10444 -18.04696,-14.50697 -42.78641,-14.50697 -4.74865,0 -9.32443,0.27274 -13.61871,0.7779 l -0.0747,-5.68696 -8.32383,8.69261 8.64536,7.53891 -0.0226,-5.60799 c 3.93667,-0.49099 8.75255,-0.76576 13.39466,-0.76576 16.80165,0 35.79627,4.6665 35.80619,9.87983 0.006,3.26651 -7.28912,5.33206 -10.55873,6.6049 0.0733,4.20169 0.0102,-2.46394 0.009,6.10995 z"
         style="fill:#fac673;fill-opacity:1;stroke:none" />
      <g
         style="stroke:#646464;stroke-width:4.5621829;stroke-miterlimit:4;stroke-opacity:1;stroke-dasharray:none;display:inline"
         transform="matrix(0.4982558,0,0,0.49799225,-182.11499,487.0565)"
         id="g4541">
        <path
           inkscape:connector-curvature="0"
           style="fill:#ffffff;fill-opacity:1;stroke:#646464;stroke-width:4.5621829;stroke-linecap:butt;stroke-linejoin:miter;stroke-miterlimit:4;stroke-opacity:1;stroke-dasharray:none"
           d="m 782.43881,963.92092 c 0,0 -0.58089,-296.20958 -0.26096,-338.26738 0.51299,-67.4483 -9.75827,-143.09611 -9.75827,-143.09611 l -0.38154,-1.49417 -0.38145,1.37371 c 0,0 -10.25126,75.64782 -9.73827,143.09612 0.31993,42.0578 -0.26096,338.26733 -0.26096,338.26733 l 3.33301,0 0,20.2199 14.09533,0.1204 0,-20.2198 3.35311,0 z"
           id="path2890"
           sodipodi:nodetypes="cscccscccccc" />
        <g
           style="stroke:#646464;stroke-width:4.5621829;stroke-miterlimit:4;stroke-opacity:1;stroke-dasharray:none"
           id="g4536"
           transform="matrix(1,0,0,-1,94.442211,1632.9719)">
          <path
             inkscape:connector-curvature="0"
             id="rect3731-9"
             d="m 667.76147,811.50072 19.57461,0 0,8.51069 -19.57461,0 z"
             style="fill:#646464;fill-opacity:1;stroke:none" />
          <path
             sodipodi:nodetypes="ccccc"
             inkscape:connector-curvature="0"
             id="rect3733-7"
             d="m 668.32886,828.02111 19.00723,0 0,12.69989 -19.00723,0 z"
             style="fill:#646464;fill-opacity:1;stroke:none" />
        </g>
        <path
           inkscape:connector-curvature="0"
           style="fill:#ffffff;fill-opacity:1;stroke:#646464;stroke-width:4.5621829;stroke-linecap:butt;stroke-linejoin:miter;stroke-miterlimit:4;stroke-opacity:1;stroke-dasharray:none;display:inline"
           d="m 761.90898,911.73932 -21.28967,12.6946 0.1282,28.595 20.90498,10.5148"
           id="path2943-2" />
        <path
           inkscape:connector-curvature="0"
           style="fill:none;stroke:#646464;stroke-width:4.5621829;stroke-linecap:butt;stroke-linejoin:miter;stroke-miterlimit:4;stroke-opacity:1;stroke-dasharray:none"
           d="m 781.93201,629.47437 -19.76988,0"
           id="path2971" />
        <path
           sodipodi:nodetypes="ccc"
           inkscape:connector-curvature="0"
           style="fill:#ffffff;fill-opacity:1;stroke:#646464;stroke-width:4.5621829;stroke-linecap:butt;stroke-linejoin:miter;stroke-miterlimit:4;stroke-opacity:1;stroke-dasharray:none"
           d="m 782.30097,763.89161 5.76864,10.67808 -5.76864,0.042"
           id="path2917" />
        <path
           sodipodi:nodetypes="ccc"
           inkscape:connector-curvature="0"
           style="fill:#ffffff;fill-opacity:1;stroke:#646464;stroke-width:4.5621829;stroke-linecap:butt;stroke-linejoin:miter;stroke-miterlimit:4;stroke-opacity:1;stroke-dasharray:none;display:inline"
           d="m 761.97313,764.01984 -5.76864,10.67808 5.76864,0.042"
           id="path2917-0" />
        <path
           sodipodi:nodetypes="cc"
           inkscape:connector-curvature="0"
           style="fill:#ffffff;fill-opacity:1;stroke:#646464;stroke-width:4.5621829;stroke-linecap:butt;stroke-linejoin:miter;stroke-miterlimit:4;stroke-opacity:1;stroke-dasharray:none"
           d="m 772.16907,763.29475 0,12.54804"
           id="path2941" />
        <path
           inkscape:connector-curvature="0"
           style="fill:#ffffff;fill-opacity:1;stroke:#646464;stroke-width:4.5621829;stroke-linecap:butt;stroke-linejoin:miter;stroke-miterlimit:4;stroke-opacity:1;stroke-dasharray:none"
           d="m 782.42927,911.73932 21.28967,12.6946 -0.1282,28.595 -20.90498,10.5148"
           id="path2943" />
        <path
           inkscape:connector-curvature="0"
           style="fill:#ffffff;fill-opacity:1;stroke:#646464;stroke-width:4.5621829;stroke-linecap:butt;stroke-linejoin:miter;stroke-miterlimit:4;stroke-opacity:1;stroke-dasharray:none"
           d="m 772.29737,911.61112 0,52.0608"
           id="path2967" />
        <path
           inkscape:connector-curvature="0"
           style="fill:none;stroke:#646464;stroke-width:4.5621829;stroke-linecap:butt;stroke-linejoin:miter;stroke-miterlimit:4;stroke-opacity:1;stroke-dasharray:none"
           d="m 779.11666,963.89082 -14.12183,-0.061"
           id="path2969"
           sodipodi:nodetypes="cc" />
      </g>
      <path
         sodipodi:nodetypes="scccscccccccsccscccccsccccccc"
         inkscape:connector-curvature="0"
         id="path4159-2-9"
         d="m 141.09397,860.90467 c -1.52729,0 -3.02792,0.13512 -4.49071,0.36474 l 14.70306,25.21166 9.98435,-17.27886 c -5.18849,-5.1313 -12.32289,-8.29754 -20.1967,-8.29754 z m -7.56807,1.02582 c -8.61068,2.34584 -15.59667,8.59563 -18.96576,16.73182 l 28.56262,-0.1367 z m 29.88472,9.64244 -14.83183,26.17496 20.08274,0 c 0.70152,-2.48564 1.15461,-5.41097 1.15461,-8.12105 0,-6.84647 -2.40696,-13.11883 -6.40552,-18.05391 z m -49.64831,9.69276 c -0.90011,2.78512 -1.39053,5.27645 -1.39053,8.36115 0,6.70057 2.30875,12.84895 6.15474,17.73484 l 15.18173,-26.09599 z m 16.01716,12.41873 -9.08845,15.9568 c 5.21835,5.3652 12.32736,8.70784 20.40295,8.70784 0.98372,0 1.83865,-0.0629 2.79694,-0.15952 z m 37.80273,7.06658 -30.40906,0.13669 9.73366,16.86857 c 9.35581,-1.92205 17.05283,-8.39805 20.6754,-17.00535 z"
         style="fill:#fac673;fill-opacity:1;fill-rule:nonzero;stroke:none" />
      <g
         id="g3956">
        <path
           sodipodi:nodetypes="sccsccs"
           style="fill:#fac673;fill-opacity:1;stroke:none"
           d="m 268.31273,889.91593 c 0,-18.92725 -6.50979,-35.6857 -16.51676,-45.98122 l -8.22248,6.12898 c 9.05747,7.49264 16.56259,24.00074 16.56259,39.99376 0,14.80725 -6.49775,30.42193 -14.46053,38.22678 l 7.47772,6.15933 c 9.2365,-10.38221 15.15946,-26.4687 15.15946,-44.52763 z"
           id="path3814"
           inkscape:connector-curvature="0" />
        <path
           sodipodi:nodetypes="sccsccs"
           style="fill:#fac673;fill-opacity:1;stroke:none"
           d="m 239.76921,888.39567 c 0,-10.76594 -3.62546,-20.59387 -9.59155,-28.07148 l -7.22567,5.22664 c 4.29224,5.63431 8.86425,15.17642 8.86425,23.12787 0,7.46452 -3.8374,16.03174 -7.66755,21.50829 l 6.5176,5.66672 c 5.67914,-7.39899 9.10292,-16.98385 9.10292,-27.45804 z"
           id="path3822"
           inkscape:connector-curvature="0" />
        <path
           sodipodi:nodetypes="sccsccs"
           id="path3824"
           d="m 296.70043,889.67457 c 0,-24.87553 -8.71128,-47.22041 -22.54918,-62.61074 l -6.89757,5.06882 c 11.91119,11.37277 20.82321,34.67062 20.82321,57.45155 0,22.60573 -9.38814,45.07778 -21.14613,56.4977 l 7.47385,5.93002 c 13.69197,-15.38548 22.29582,-37.61132 22.29582,-62.33735 z"
           style="fill:#fac673;fill-opacity:1;stroke:none"
           inkscape:connector-curvature="0" />
      </g>
      <path
         inkscape:connector-curvature="0"
         id="path4106"
         d="m 132.3075,801.48077 -4.70648,2.01613 -2.03544,4.69817 -2.01613,-4.70649 -4.69816,-2.03543 4.70646,-2.01613 2.03545,-4.69817 2.01614,4.70648 z"
         style="opacity:0.98999999;fill:#ffffff;fill-opacity:1;fill-rule:nonzero;stroke:none" />
      <path
         inkscape:connector-curvature="0"
         id="path4106-2"
         d="m 286.29679,801.48908 -4.70648,2.01613 -2.03544,4.69817 -2.01613,-4.70649 -4.69816,-2.03543 4.70647,-2.01613 2.03544,-4.69817 2.01614,4.70647 z"
         style="opacity:0.98999999;fill:#ffffff;fill-opacity:1;fill-rule:nonzero;stroke:none" />
      <path
         inkscape:connector-curvature="0"
         id="path4106-6"
         d="m 257.25559,751.50153 -4.70648,2.01613 -2.03544,4.69817 -2.01613,-4.70649 -4.69816,-2.03543 4.70647,-2.01613 2.03544,-4.69817 2.01614,4.70648 z"
         style="opacity:0.98999999;fill:#ffffff;fill-opacity:1;fill-rule:nonzero;stroke:none" />
      <path
         inkscape:connector-curvature="0"
         id="path4106-7"
         d="m 161.3487,751.50984 -4.70648,2.01613 -2.03544,4.69817 -2.01613,-4.70649 -4.69816,-2.03543 4.70647,-2.01613 2.03544,-4.69817 2.01614,4.70648 z"
         style="opacity:0.98999999;fill:#ffffff;fill-opacity:1;fill-rule:nonzero;stroke:none" />
      <path
         sodipodi:nodetypes="cc"
         inkscape:connector-curvature="0"
         id="path3991"
         d="m 217.65857,790.52957 1.30503,14.49373"
         style="fill:#50a8cc;fill-opacity:1;fill-rule:nonzero;stroke:none" />
      <path
         sodipodi:nodetypes="csscccccssccc"
         inkscape:connector-curvature="0"
         id="path4433-5"
         d="m 177.031,786.11415 c -11.6731,2.97142 -17.3174,7.93094 -17.3174,13.55303 0,9.10445 18.04697,14.50697 42.78641,14.50697 4.74865,0 9.04061,-0.27274 13.3349,-0.77789 l 0.0274,6.20729 8.60766,-10.08255 -8.81998,-7.68082 0.008,6.40287 c -3.93667,0.49098 -8.51603,0.86923 -13.15814,0.86923 -16.80165,0 -36.03689,-4.46878 -35.9562,-9.90857 0.0516,-3.47617 7.21721,-6.63592 10.56683,-7.42863 0.0811,-3.74822 0.0744,2.78884 -0.0796,-5.58091 z"
         style="fill:#fac673;fill-opacity:1;stroke:none" />
    </g>
    <g
       transform="matrix(0.39797491,0,0,0.39797491,299.4298,570.66263)"
       id="g3754">
      <path
         inkscape:connector-curvature="0"
         id="path3887"
         d="m 318.89764,194.88188 c 0,88.06115 -71.38767,159.44882 -159.44882,159.44882 C 71.387669,354.3307 0,282.94303 0,194.88188 0,106.82073 71.387669,35.43306 159.44882,35.43306 c 88.06115,0 159.44882,71.38767 159.44882,159.44882 z"
         style="fill:#363f09;fill-opacity:1;stroke:none"
         transform="matrix(1.0333333,0,0,1.0333333,47.834648,640.15774)" />
      <path
         sodipodi:nodetypes="ccccsc"
         inkscape:connector-curvature="0"
         id="path4673-3"
         d="m 206.95574,694.48843 c -1.82049,3.51919 -1.82049,3.51919 1.77652,7.0625 24.23204,0 47.73296,32.55547 59.37283,81.52018 0,0 -1.49776,0 0.85865,-0.0419 -12.09361,-53.09894 -34.4925,-88.54081 -62.008,-88.54081 z"
         style="fill:#ffffff;fill-opacity:1;stroke:none" />
      <path
         inkscape:connector-curvature="0"
         id="path3889"
         d="m 212.59843,775.98697 c -57.14053,0 -111.61885,11.37423 -161.3125,31.96875 -2.24555,10.84316 -3.4375,22.08502 -3.4375,33.59375 0,90.99652 73.75348,164.75003 164.75,164.75003 90.99652,0 164.78125,-73.75351 164.78125,-164.75003 0,-11.50667 -1.19273,-22.75239 -3.4375,-33.59375 -49.70079,-20.60147 -104.19306,-31.96875 -161.34375,-31.96875 z"
         style="fill:#6a7f10;fill-opacity:1;stroke:none" />
      <path
         inkscape:connector-curvature="0"
         id="path3404-64"
         transform="translate(0,627.16561)"
         d="m 371.21875,98 -0.59375,0.15625 c 0,0 -29.05654,14.23055 -51.84375,31.1875 -10.0502,7.47879 -51.50893,37.59402 -80.0625,58.34375 L 224.5,182.46875 208.65625,194.125 l 1.65625,14.21875 c -0.002,0.001 -0.3125,0.21875 -0.3125,0.21875 l 1.15625,1.59375 -171.625,94.5 34.03125,10.28125 -0.625,35.53125 142.46875,-134.4375 1.15625,1.59375 c 0,0 0.34144,-0.24831 0.34375,-0.25 l 13,5.875 15.9375,-11.5 -0.59375,-15.09375 c 28.50258,-20.83126 69.84019,-51.03838 80.03125,-58.3125 23.11898,-16.50175 45.53125,-39.8125 45.53125,-39.8125 L 371.21875,98 z"
         style="fill:#a33f1f;fill-opacity:1;stroke:none" />
      <g
         transform="translate(7.2323809e-7,-1.6014947)"
         id="text3825"
         style="font-size:78px;font-style:normal;font-variant:normal;font-weight:900;font-stretch:normal;text-align:center;line-height:125%;letter-spacing:9px;word-spacing:0px;writing-mode:lr-tb;text-anchor:middle;fill:#ffffff;fill-opacity:1;stroke:none;font-family:Orbitron;-inkscape-font-specification:Orbitron Heavy">
        <path
           sodipodi:nodetypes="cccccccsssccccccc"
           inkscape:connector-curvature="0"
           id="path3817"
           d="m 74.957462,871.17401 0,43.67908 12.09,0 0,-18.018 c 0.078,0.078 0.234,0.078 0.234,0.078 0,-0.312 -0.078,-0.468 -0.234,-0.468 l 32.447998,-0.078 c 6.396,0 11.622,-5.22601 11.622,-11.544 l 0,-14.508 c 0,-6.318 -5.226,-11.544 -11.622,-11.544 l -32.723184,0 c -6.793433,-0.10386 -12.170503,5.42576 -11.814814,12.40292 z m 12.09,-0.31292 31.823998,0 0,13.338 -31.823998,0 0,-13.338" />
        <path
           inkscape:connector-curvature="0"
           id="path3819"
           d="m 201.42668,870.23709 c 0,-6.396 -5.22601,-11.544 -11.544,-11.544 l -33.072,0 c -6.39599,0 -11.544,5.148 -11.544,11.544 l 0,11.076 c 0,6.39599 5.14801,11.544 11.544,11.544 l 32.37,0 0,9.828 -31.824,0 0,-4.602 -12.09,0 0,5.226 c 0,6.39599 5.14801,11.544 11.544,11.544 l 33.072,0 c 6.31799,0 11.544,-5.14801 11.544,-11.544 l 0,-11.076 c 0,-6.396 -5.22601,-11.544 -11.544,-11.544 l -32.526,0 0,-9.828 31.824,0 0,4.602 12.246,0 0,-5.226" />
        <path
           inkscape:connector-curvature="0"
           id="path3821"
           d="m 230.4934,858.69309 c -6.39599,0 -11.544,5.148 -11.544,11.544 l 0,44.616 12.09,0 0,-18.096 31.824,0 0,18.096 12.246,0 0,-44.616 c 0,-6.396 -5.22601,-11.544 -11.622,-11.544 l -32.994,0 m 0.546,25.896 0,-13.728 31.824,0 0,13.728 -31.824,0" />
        <path
           inkscape:connector-curvature="0"
           id="path3823"
           d="m 348.76652,870.23709 c 0,-6.396 -5.226,-11.544 -11.544,-11.544 l -33.072,0 c -6.39599,0 -11.544,5.148 -11.544,11.544 l 0,11.076 c 0,6.39599 5.14801,11.544 11.544,11.544 l 32.37,0 0,9.828 -31.824,0 0,-4.602 -12.09,0 0,5.226 c 0,6.39599 5.14801,11.544 11.544,11.544 l 33.072,0 c 6.318,0 11.544,-5.14801 11.544,-11.544 l 0,-11.076 c 0,-6.396 -5.226,-11.544 -11.544,-11.544 l -32.526,0 0,-9.828 31.824,0 0,4.602 12.246,0 0,-5.226" />
      </g>
      <path
         sodipodi:nodetypes="cscscsccc"
         inkscape:connector-curvature="0"
         id="path4673"
         d="m 206.95574,694.48843 c -33.76287,0 -67.01203,54.33548 -74.85685,127.71753 -0.36878,3.44961 -1.76116,7.02417 -2.94502,10.47145 0.41818,0.70065 3.89864,2.2329 6.8455,2.30215 4.25953,0.10009 6.84284,-1.20112 7.89053,-2.30215 -0.66672,-1.53218 -0.91016,-7.12556 -0.4978,-10.61861 8.23978,-69.79839 35.11053,-120.50787 65.34016,-120.50787 1.82048,-3.51919 1.82048,-3.51919 -1.77652,-7.06253 z"
         style="fill:#ffffff;fill-opacity:1;stroke:none" />
    </g>
  </g>
</svg>
